<?xml version="1.0" encoding="UTF-8" standalone="no"?>
<svg
   xmlns:dc="http://purl.org/dc/elements/1.1/"
   xmlns:cc="http://creativecommons.org/ns#"
   xmlns:rdf="http://www.w3.org/1999/02/22-rdf-syntax-ns#"
   xmlns:svg="http://www.w3.org/2000/svg"
   xmlns="http://www.w3.org/2000/svg"
   xmlns:sodipodi="http://sodipodi.sourceforge.net/DTD/sodipodi-0.dtd"
   xmlns:inkscape="http://www.inkscape.org/namespaces/inkscape"
   width="200"
   height="200"
   viewBox="0 0 52.916665 52.916668"
   version="1.1"
   id="svg25776"
   inkscape:version="1.0.2 (e86c870879, 2021-01-15)"
   sodipodi:docname="eu-flag-circle.svg">
  <defs
     id="defs25770" />
  <sodipodi:namedview
     id="base"
     pagecolor="#ffffff"
     bordercolor="#666666"
     borderopacity="1.0"
     inkscape:pageopacity="0.0"
     inkscape:pageshadow="2"
     inkscape:zoom="1.979899"
     inkscape:cx="-88.364302"
     inkscape:cy="170.43386"
     inkscape:document-units="mm"
     inkscape:current-layer="layer1"
     inkscape:document-rotation="0"
     showgrid="false"
     units="px"
     inkscape:window-width="2560"
     inkscape:window-height="1346"
     inkscape:window-x="0"
     inkscape:window-y="27"
     inkscape:window-maximized="1" />
  <metadata
     id="metadata25773">
    <rdf:RDF>
      <cc:Work
         rdf:about="">
        <dc:format>image/svg+xml</dc:format>
        <dc:type
           rdf:resource="http://purl.org/dc/dcmitype/StillImage" />
        <dc:title></dc:title>
      </cc:Work>
    </rdf:RDF>
  </metadata>
  <g
     inkscape:label="Layer 1"
     inkscape:groupmode="layer"
     id="layer1">
    <circle
       style="fill:#003b77;fill-opacity:1;stroke:none;stroke-width:6.00001;stroke-linecap:round;stroke-linejoin:bevel"
       id="path26353"
       cx="26.458334"
       cy="26.458334"
       r="26.458334" />
    <g
       id="g26409"
       transform="matrix(1.7750295,0,0,1.7750295,113.6044,-98.812842)"
       style="stroke-width:0.563371">
      <path
         sodipodi:type="star"
         style="fill:#fdcb08;fill-opacity:1;stroke:none;stroke-width:2.21767;stroke-linecap:round;stroke-linejoin:bevel"
         id="path26355"
         sodipodi:sides="5"
         sodipodi:cx="-49.048943"
         sodipodi:cy="59.005409"
         sodipodi:r1="1.3442456"
         sodipodi:r2="0.49737087"
         sodipodi:arg1="1.0471976"
         sodipodi:arg2="1.6755161"
         inkscape:flatsided="false"
         inkscape:rounded="0"
         inkscape:randomized="0"
         transform="matrix(1.5152064,-0.1655684,0.1655684,1.5152064,15.465509,-38.434118)"
         d="m -48.37682,60.16956 -0.724112,-0.669505 -0.847486,0.504323 0.412973,-0.89556 -0.741527,-0.650163 0.979344,0.116018 0.389197,-0.906145 0.192295,0.967263 0.982064,0.09013 -0.8605,0.481783 z" />
      <path
         sodipodi:type="star"
         style="fill:#fdcb08;fill-opacity:1;stroke:none;stroke-width:2.21767;stroke-linecap:round;stroke-linejoin:bevel"
         id="path26357"
         sodipodi:sides="5"
         sodipodi:cx="-49.048943"
         sodipodi:cy="59.005409"
         sodipodi:r1="1.3442456"
         sodipodi:r2="0.49737087"
         sodipodi:arg1="1.0471976"
         sodipodi:arg2="1.6755161"
         inkscape:flatsided="false"
         inkscape:rounded="0"
         inkscape:randomized="0"
         transform="matrix(1.5152064,-0.1655684,0.1655684,1.5152064,15.465509,-15.083918)"
         d="m -48.37682,60.16956 -0.724112,-0.669505 -0.847486,0.504323 0.412973,-0.89556 -0.741527,-0.650163 0.979344,0.116018 0.389197,-0.906145 0.192295,0.967263 0.982064,0.09013 -0.8605,0.481783 z" />
      <path
         sodipodi:type="star"
         style="fill:#fdcb08;fill-opacity:1;stroke:none;stroke-width:2.21767;stroke-linecap:round;stroke-linejoin:bevel"
         id="path26377"
         sodipodi:sides="5"
         sodipodi:cx="-49.048943"
         sodipodi:cy="59.005409"
         sodipodi:r1="1.3442456"
         sodipodi:r2="0.49737087"
         sodipodi:arg1="1.0471976"
         sodipodi:arg2="1.6755161"
         inkscape:flatsided="false"
         inkscape:rounded="0"
         inkscape:randomized="0"
         transform="matrix(1.5152064,-0.1655684,0.1655684,1.5152064,27.152218,-26.779142)"
         d="m -48.37682,60.16956 -0.724112,-0.669505 -0.847486,0.504323 0.412973,-0.89556 -0.741527,-0.650163 0.979344,0.116018 0.389197,-0.906145 0.192295,0.967263 0.982064,0.09013 -0.8605,0.481783 z" />
      <path
         sodipodi:type="star"
         style="fill:#fdcb08;fill-opacity:1;stroke:none;stroke-width:2.21767;stroke-linecap:round;stroke-linejoin:bevel"
         id="path26379"
         sodipodi:sides="5"
         sodipodi:cx="-49.048943"
         sodipodi:cy="59.005409"
         sodipodi:r1="1.3442456"
         sodipodi:r2="0.49737087"
         sodipodi:arg1="1.0471976"
         sodipodi:arg2="1.6755161"
         inkscape:flatsided="false"
         inkscape:rounded="0"
         inkscape:randomized="0"
         transform="matrix(1.5152064,-0.1655684,0.1655684,1.5152064,25.724149,-32.855108)"
         d="m -48.37682,60.16956 -0.724112,-0.669505 -0.847486,0.504323 0.412973,-0.89556 -0.741527,-0.650163 0.979344,0.116018 0.389197,-0.906145 0.192295,0.967263 0.982064,0.09013 -0.8605,0.481783 z" />
      <path
         sodipodi:type="star"
         style="fill:#fdcb08;fill-opacity:1;stroke:none;stroke-width:2.21767;stroke-linecap:round;stroke-linejoin:bevel"
         id="path26381"
         sodipodi:sides="5"
         sodipodi:cx="-49.048943"
         sodipodi:cy="59.005409"
         sodipodi:r1="1.3442456"
         sodipodi:r2="0.49737087"
         sodipodi:arg1="1.0471976"
         sodipodi:arg2="1.6755161"
         inkscape:flatsided="false"
         inkscape:rounded="0"
         inkscape:randomized="0"
         transform="matrix(1.5152064,-0.1655684,0.1655684,1.5152064,21.446527,-36.875833)"
         d="m -48.37682,60.16956 -0.724112,-0.669505 -0.847486,0.504323 0.412973,-0.89556 -0.741527,-0.650163 0.979344,0.116018 0.389197,-0.906145 0.192295,0.967263 0.982064,0.09013 -0.8605,0.481783 z" />
      <path
         sodipodi:type="star"
         style="fill:#fdcb08;fill-opacity:1;stroke:none;stroke-width:2.21767;stroke-linecap:round;stroke-linejoin:bevel"
         id="path26383"
         sodipodi:sides="5"
         sodipodi:cx="-49.048943"
         sodipodi:cy="59.005409"
         sodipodi:r1="1.3442456"
         sodipodi:r2="0.49737087"
         sodipodi:arg1="1.0471976"
         sodipodi:arg2="1.6755161"
         inkscape:flatsided="false"
         inkscape:rounded="0"
         inkscape:randomized="0"
         transform="matrix(1.5152064,-0.1655684,0.1655684,1.5152064,9.7783771,-37.161978)"
         d="m -48.37682,60.16956 -0.724112,-0.669505 -0.847486,0.504323 0.412973,-0.89556 -0.741527,-0.650163 0.979344,0.116018 0.389197,-0.906145 0.192295,0.967263 0.982064,0.09013 -0.8605,0.481783 z" />
      <path
         sodipodi:type="star"
         style="fill:#fdcb08;fill-opacity:1;stroke:none;stroke-width:2.21767;stroke-linecap:round;stroke-linejoin:bevel"
         id="path26385"
         sodipodi:sides="5"
         sodipodi:cx="-49.048943"
         sodipodi:cy="59.005409"
         sodipodi:r1="1.3442456"
         sodipodi:r2="0.49737087"
         sodipodi:arg1="1.0471976"
         sodipodi:arg2="1.6755161"
         inkscape:flatsided="false"
         inkscape:rounded="0"
         inkscape:randomized="0"
         transform="matrix(1.5152064,-0.1655684,0.1655684,1.5152064,5.4613951,-32.847849)"
         d="m -48.37682,60.16956 -0.724112,-0.669505 -0.847486,0.504323 0.412973,-0.89556 -0.741527,-0.650163 0.979344,0.116018 0.389197,-0.906145 0.192295,0.967263 0.982064,0.09013 -0.8605,0.481783 z" />
      <path
         sodipodi:type="star"
         style="fill:#fdcb08;fill-opacity:1;stroke:none;stroke-width:2.21767;stroke-linecap:round;stroke-linejoin:bevel"
         id="path26387"
         sodipodi:sides="5"
         sodipodi:cx="-49.048943"
         sodipodi:cy="59.005409"
         sodipodi:r1="1.3442456"
         sodipodi:r2="0.49737087"
         sodipodi:arg1="1.0471976"
         sodipodi:arg2="1.6755161"
         inkscape:flatsided="false"
         inkscape:rounded="0"
         inkscape:randomized="0"
         transform="matrix(1.5152064,-0.1655684,0.1655684,1.5152064,3.7615591,-26.775848)"
         d="m -48.37682,60.16956 -0.724112,-0.669505 -0.847486,0.504323 0.412973,-0.89556 -0.741527,-0.650163 0.979344,0.116018 0.389197,-0.906145 0.192295,0.967263 0.982064,0.09013 -0.8605,0.481783 z" />
      <path
         sodipodi:type="star"
         style="fill:#fdcb08;fill-opacity:1;stroke:none;stroke-width:2.21767;stroke-linecap:round;stroke-linejoin:bevel"
         id="path26389"
         sodipodi:sides="5"
         sodipodi:cx="-49.048943"
         sodipodi:cy="59.005409"
         sodipodi:r1="1.3442456"
         sodipodi:r2="0.49737087"
         sodipodi:arg1="1.0471976"
         sodipodi:arg2="1.6755161"
         inkscape:flatsided="false"
         inkscape:rounded="0"
         inkscape:randomized="0"
         transform="matrix(1.5152064,-0.1655684,0.1655684,1.5152064,5.4650005,-21.171565)"
         d="m -48.37682,60.16956 -0.724112,-0.669505 -0.847486,0.504323 0.412973,-0.89556 -0.741527,-0.650163 0.979344,0.116018 0.389197,-0.906145 0.192295,0.967263 0.982064,0.09013 -0.8605,0.481783 z" />
      <path
         sodipodi:type="star"
         style="fill:#fdcb08;fill-opacity:1;stroke:none;stroke-width:2.21767;stroke-linecap:round;stroke-linejoin:bevel"
         id="path26391"
         sodipodi:sides="5"
         sodipodi:cx="-49.048943"
         sodipodi:cy="59.005409"
         sodipodi:r1="1.3442456"
         sodipodi:r2="0.49737087"
         sodipodi:arg1="1.0471976"
         sodipodi:arg2="1.6755161"
         inkscape:flatsided="false"
         inkscape:rounded="0"
         inkscape:randomized="0"
         transform="matrix(1.5152064,-0.1655684,0.1655684,1.5152064,9.75723,-16.55453)"
         d="m -48.37682,60.16956 -0.724112,-0.669505 -0.847486,0.504323 0.412973,-0.89556 -0.741527,-0.650163 0.979344,0.116018 0.389197,-0.906145 0.192295,0.967263 0.982064,0.09013 -0.8605,0.481783 z" />
      <path
         sodipodi:type="star"
         style="fill:#fdcb08;fill-opacity:1;stroke:none;stroke-width:2.21767;stroke-linecap:round;stroke-linejoin:bevel"
         id="path26393"
         sodipodi:sides="5"
         sodipodi:cx="-49.048943"
         sodipodi:cy="59.005409"
         sodipodi:r1="1.3442456"
         sodipodi:r2="0.49737087"
         sodipodi:arg1="1.0471976"
         sodipodi:arg2="1.6755161"
         inkscape:flatsided="false"
         inkscape:rounded="0"
         inkscape:randomized="0"
         transform="matrix(1.5152064,-0.1655684,0.1655684,1.5152064,21.473366,-16.904231)"
         d="m -48.37682,60.16956 -0.724112,-0.669505 -0.847486,0.504323 0.412973,-0.89556 -0.741527,-0.650163 0.979344,0.116018 0.389197,-0.906145 0.192295,0.967263 0.982064,0.09013 -0.8605,0.481783 z" />
      <path
         sodipodi:type="star"
         style="fill:#fdcb08;fill-opacity:1;stroke:none;stroke-width:2.21767;stroke-linecap:round;stroke-linejoin:bevel"
         id="path26395"
         sodipodi:sides="5"
         sodipodi:cx="-49.048943"
         sodipodi:cy="59.005409"
         sodipodi:r1="1.3442456"
         sodipodi:r2="0.49737087"
         sodipodi:arg1="1.0471976"
         sodipodi:arg2="1.6755161"
         inkscape:flatsided="false"
         inkscape:rounded="0"
         inkscape:randomized="0"
         transform="matrix(1.5152064,-0.1655684,0.1655684,1.5152064,25.759534,-20.867746)"
         d="m -48.37682,60.16956 -0.724112,-0.669505 -0.847486,0.504323 0.412973,-0.89556 -0.741527,-0.650163 0.979344,0.116018 0.389197,-0.906145 0.192295,0.967263 0.982064,0.09013 -0.8605,0.481783 z" />
    </g>
  </g>
</svg>
