<?xml version="1.0" encoding="UTF-8" standalone="no"?>
<svg
   xmlns:dc="http://purl.org/dc/elements/1.1/"
   xmlns:cc="http://creativecommons.org/ns#"
   xmlns:rdf="http://www.w3.org/1999/02/22-rdf-syntax-ns#"
   xmlns:svg="http://www.w3.org/2000/svg"
   xmlns="http://www.w3.org/2000/svg"
   xmlns:sodipodi="http://sodipodi.sourceforge.net/DTD/sodipodi-0.dtd"
   xmlns:inkscape="http://www.inkscape.org/namespaces/inkscape"
   width="200"
   height="200"
   viewBox="0 0 52.916665 52.916668"
   version="1.1"
   id="svg23151"
   inkscape:version="1.0.2 (e86c870879, 2021-01-15)"
   sodipodi:docname="konsumtionsbaserade-utslapp.svg">
  <defs
     id="defs23145">
    <clipPath
       id="clipPath10506"
       clipPathUnits="userSpaceOnUse">
      <path
         inkscape:connector-curvature="0"
         id="path10504"
         d="M 196.996,217.451 H 312.59 V 105.855 H 196.996 Z" />
    </clipPath>
    <clipPath
       id="clipPath10530"
       clipPathUnits="userSpaceOnUse">
      <path
         inkscape:connector-curvature="0"
         id="path10528"
         d="M 255.529,187.418 H 314.77 V 151.719 H 255.529 Z" />
    </clipPath>
    <clipPath
       id="clipPath10546"
       clipPathUnits="userSpaceOnUse">
      <path
         inkscape:connector-curvature="0"
         id="path10544"
         d="m 275.585,163.608 h 40.3 v -56.227 h -40.3 z" />
    </clipPath>
    <clipPath
       id="clipPath10562"
       clipPathUnits="userSpaceOnUse">
      <path
         inkscape:connector-curvature="0"
         id="path10560"
         d="M 193.701,213.023 H 246.78 V 107.87 h -53.079 z" />
    </clipPath>
    <clipPath
       id="clipPath10578"
       clipPathUnits="userSpaceOnUse">
      <path
         inkscape:connector-curvature="0"
         id="path10576"
         d="m 207.316,206.734 h 93.097 v -73.417 h -93.097 z" />
    </clipPath>
    <clipPath
       id="clipPath10630"
       clipPathUnits="userSpaceOnUse">
      <path
         inkscape:connector-curvature="0"
         id="path10628"
         d="M 189.72,204.586 H 316.111 V 97.3181 H 189.72 Z" />
    </clipPath>
    <clipPath
       id="clipPath10646"
       clipPathUnits="userSpaceOnUse">
      <path
         inkscape:connector-curvature="0"
         id="path10644"
         d="m 200.571,221.279 h 80.443 v -76.836 h -80.443 z" />
    </clipPath>
    <clipPath
       id="clipPath10662"
       clipPathUnits="userSpaceOnUse">
      <path
         inkscape:connector-curvature="0"
         id="path10660"
         d="m 285.818,130.87 h 17.047 v -15.157 h -17.047 z" />
    </clipPath>
    <clipPath
       id="clipPath10666"
       clipPathUnits="userSpaceOnUse">
      <path
         inkscape:connector-curvature="0"
         id="path10664"
         d="m 285.818,122.947 h 8.527 v -7.234 h -8.527 z" />
    </clipPath>
    <clipPath
       id="clipPath10670"
       clipPathUnits="userSpaceOnUse">
      <path
         inkscape:connector-curvature="0"
         id="path10668"
         d="m 296.614,130.87 h 6.251 v -5.867 h -6.251 z" />
    </clipPath>
    <clipPath
       id="clipPath10706"
       clipPathUnits="userSpaceOnUse">
      <path
         inkscape:connector-curvature="0"
         id="path10704"
         d="m 216.312,215.206 h 17.67 v -14.423 h -17.67 z" />
    </clipPath>
    <clipPath
       id="clipPath10710"
       clipPathUnits="userSpaceOnUse">
      <path
         inkscape:connector-curvature="0"
         id="path10708"
         d="m 225.289,215.206 h 8.693 v -7.035 h -8.693 z" />
    </clipPath>
    <clipPath
       id="clipPath10714"
       clipPathUnits="userSpaceOnUse">
      <path
         inkscape:connector-curvature="0"
         id="path10712"
         d="m 216.312,206.493 h 6.393 v -5.71 h -6.393 z" />
    </clipPath>
    <clipPath
       id="clipPath10750"
       clipPathUnits="userSpaceOnUse">
      <path
         inkscape:connector-curvature="0"
         id="path10748"
         d="m 198.809,215.506 h 79.602 v -107.86 h -79.602 z" />
    </clipPath>
    <clipPath
       id="clipPath10822"
       clipPathUnits="userSpaceOnUse">
      <path
         inkscape:connector-curvature="0"
         id="path10820"
         d="m 269.24,183.649 h 58.991 V 173.004 H 269.24 Z" />
    </clipPath>
    <clipPath
       id="clipPath10842"
       clipPathUnits="userSpaceOnUse">
      <path
         inkscape:connector-curvature="0"
         id="path10840"
         d="M 176.019,131.36 H 235.01 V 120.715 H 176.019 Z" />
    </clipPath>
    <clipPath
       clipPathUnits="userSpaceOnUse"
       id="clipPath25001">
      <path
         style="fill:#006aa7;fill-opacity:1;stroke-width:0.499997;stroke-linecap:round;stroke-linejoin:bevel"
         id="path25003"
         sodipodi:type="arc"
         sodipodi:cx="-99.966072"
         sodipodi:cy="-99.87178"
         sodipodi:rx="100"
         sodipodi:ry="100"
         sodipodi:start="0"
         sodipodi:end="2.7052603"
         sodipodi:arc-type="slice"
         transform="matrix(0,-1,-1,0,0,0)"
         d="M 0.03392792,-99.87178 A 100,100 0 0 1 -78.322109,-2.2421801 100,100 0 0 1 -190.59685,-57.609951 l 90.630778,-42.261829 z" />
    </clipPath>
  </defs>
  <sodipodi:namedview
     id="base"
     pagecolor="#ffffff"
     bordercolor="#666666"
     borderopacity="1.0"
     inkscape:pageopacity="0.0"
     inkscape:pageshadow="2"
     inkscape:zoom="2.8"
     inkscape:cx="94.806864"
     inkscape:cy="111.82898"
     inkscape:document-units="mm"
     inkscape:current-layer="layer1"
     inkscape:document-rotation="0"
     showgrid="false"
     units="px"
     inkscape:window-width="2560"
     inkscape:window-height="1346"
     inkscape:window-x="0"
     inkscape:window-y="27"
     inkscape:window-maximized="1" />
  <metadata
     id="metadata23148">
    <rdf:RDF>
      <cc:Work
         rdf:about="">
        <dc:format>image/svg+xml</dc:format>
        <dc:type
           rdf:resource="http://purl.org/dc/dcmitype/StillImage" />
        <dc:title></dc:title>
      </cc:Work>
    </rdf:RDF>
  </metadata>
  <g
     inkscape:label="Layer 1"
     inkscape:groupmode="layer"
     id="layer1">
    <g
       id="g24692"
       transform="matrix(1.209481,0,0,1.2094847,-4.855904,-6.0204278)"
       style="stroke-width:0.8268">
      <g
         transform="matrix(0.34616031,0,0,-0.34616031,47.794464,26.860704)"
         id="g10496"
         style="stroke-width:0.842608">
        <path
           inkscape:connector-curvature="0"
           id="path10498"
           style="fill:#0097e0;fill-opacity:1;fill-rule:nonzero;stroke:none;stroke-width:0.842608"
           d="m 0,0 c 0,-34.902 -28.293,-63.195 -63.195,-63.195 -34.903,0 -63.196,28.293 -63.196,63.195 0,34.902 28.293,63.195 63.196,63.195 C -28.293,63.195 0,34.902 0,0" />
      </g>
      <g
         transform="matrix(0.34616031,0,0,-0.34616031,-61.63072,82.424181)"
         id="g10500"
         style="stroke-width:0.842608">
        <g
           id="g10502"
           style="stroke-width:0.842608" />
        <g
           id="g10518"
           style="stroke-width:0.842608">
          <g
             style="opacity:0.600006;stroke-width:0.842608"
             id="g10516"
             clip-path="url(#clipPath10506)">
            <g
               id="g10510"
               transform="translate(312.5898,153.3926)"
               style="stroke-width:0.842608">
              <path
                 inkscape:connector-curvature="0"
                 id="path10508"
                 style="fill:#0097e0;fill-opacity:1;fill-rule:nonzero;stroke:none;stroke-width:0.842608"
                 d="m 0,0 c -0.369,0.613 -0.795,1.209 -1.292,1.779 -2.409,2.764 -6.182,6.305 -9.892,6.379 -3.752,0.078 -5.669,-1.67 -9.868,-0.013 -4.023,1.593 -7.246,4.462 -1.925,6.498 4.505,1.724 7.144,-2.092 10.654,-3.047 6.31,-1.721 7.212,3.259 11.268,6.361 -3.878,19.441 -16.368,35.563 -33.102,43.805 -3.469,-3.291 -5.554,-8.162 -6.021,-13.826 -0.888,-10.77 -7.977,-9.127 -13.68,-15.666 -5.554,-6.37 -5.071,-15.481 0.491,-21.456 4.719,-5.068 7.246,-3.492 12.288,-0.093 1.294,-0.776 2.156,-2.024 2.356,-3.385 -3.453,-2.367 -8.337,-4.74 -7.928,-9.547 0.45,-5.287 3.686,-5.117 1.533,-10.873 -1.831,-4.898 -2.086,-5.664 0.999,-11.025 2.84,-4.938 6.894,-9.348 10.02,-14.178 1.715,-2.651 4.162,-6.281 6.873,-9.25 C -12.005,-37.26 -1.536,-19.955 0,0" />
            </g>
            <g
               id="g10514"
               transform="translate(196.9956,180.3789)"
               style="stroke-width:0.842608">
              <path
                 inkscape:connector-curvature="0"
                 id="path10512"
                 style="fill:#0097e0;fill-opacity:1;fill-rule:nonzero;stroke:none;stroke-width:0.842608"
                 d="m 0,0 c 2.045,-2.508 5.346,-2.102 6.886,-4.619 3.534,-5.777 -5.246,-11.701 7.422,-11.699 0.695,-3.678 1.821,-7.793 6.211,-7.194 -0.495,-0.068 1.031,-6.884 1.215,-7.492 -4.921,1.195 -16.246,-3.232 -10.432,-9.883 1.59,-1.82 4.101,-0.89 4.687,-3.775 0.539,-2.656 -2.066,-3.164 -2.607,-5.297 -1.159,-4.58 0.41,-4.117 3.123,-7.561 3.383,-4.291 1.637,-12.697 6.27,-15.617 4.396,-2.771 9.873,1.401 12.256,5.19 4.124,6.558 9.892,14.537 12.845,21.748 2.738,6.689 -0.189,13.553 -6.967,16.041 -2.748,1.01 -6.778,-0.393 -9.142,1.73 -2.874,2.578 -1.308,5.438 -1.813,8.795 -0.423,2.819 -2.35,4.127 -1.453,7.393 1.819,6.619 7.076,9.978 10.733,15.051 0.774,1.07 1.991,1.584 2.607,2.794 0.708,1.401 -0.419,3.303 0.594,4.907 1.353,2.146 4.138,2.207 5.691,4.152 6.495,8.135 -3.553,19.588 -10.922,22.057 -0.425,0.144 -0.854,0.246 -1.284,0.351 C 19.343,30.875 6.148,17.24 0,0" />
            </g>
          </g>
        </g>
      </g>
      <g
         transform="matrix(0.34616031,0,0,-0.34616031,5.4207738,19.211394)"
         id="g10520"
         style="stroke-width:0.842608">
        <path
           inkscape:connector-curvature="0"
           id="path10522"
           style="fill:#8ee05d;fill-opacity:1;fill-rule:nonzero;stroke:none;stroke-width:0.842608"
           d="m 0,0 c 2.162,-2.531 5.65,-2.119 7.278,-4.662 3.736,-5.832 -5.545,-11.813 7.846,-11.811 0.735,-3.713 1.925,-7.869 6.565,-7.261 -0.523,-0.071 1.089,-6.95 1.285,-7.563 -5.203,1.205 -17.173,-3.264 -11.028,-9.978 1.681,-1.836 4.335,-0.899 4.955,-3.811 0.569,-2.682 -2.184,-3.195 -2.755,-5.348 -1.227,-4.625 0.433,-4.154 3.301,-7.63 3.574,-4.334 1.729,-12.821 6.626,-15.768 4.648,-2.799 10.437,1.412 12.956,5.238 4.358,6.619 10.455,14.676 13.576,21.957 2.895,6.754 -0.2,13.682 -7.364,16.192 -2.905,1.019 -7.164,-0.395 -9.664,1.748 -3.037,2.603 -1.381,5.488 -1.915,8.881 -0.448,2.843 -2.483,4.166 -1.536,7.461 1.922,6.683 7.479,10.074 11.345,15.191 0.818,1.084 2.104,1.601 2.755,2.824 0.749,1.412 -0.442,3.332 0.628,4.953 1.431,2.166 4.374,2.229 6.016,4.192 6.865,8.213 -3.756,19.775 -11.545,22.269 -0.45,0.143 -0.903,0.246 -1.357,0.352 C 20.446,31.17 6.499,17.406 0,0 m 93.407,-75.23 c -2.866,2.996 -5.453,6.662 -7.265,9.335 -3.307,4.875 -7.59,9.331 -10.593,14.315 -3.26,5.412 -2.99,6.184 -1.055,11.129 2.276,5.812 -1.144,5.64 -1.619,10.976 -0.434,4.854 4.729,7.246 8.379,9.639 -0.212,1.375 -1.126,2.633 -2.491,3.416 -5.329,-3.432 -8.001,-5.021 -12.988,0.096 -5.879,6.033 -6.39,15.228 -0.521,21.656 6.03,6.604 13.522,4.945 14.461,15.818 0.493,5.717 2.698,10.635 6.366,13.957 17.687,-8.32 30.889,-24.595 34.989,-44.22 -4.289,-3.133 -5.242,-8.16 -11.912,-6.424 -3.71,0.965 -6.498,4.818 -11.26,3.078 -5.626,-2.057 -2.218,-4.953 2.034,-6.561 4.439,-1.673 6.466,0.09 10.431,0.014 3.921,-0.074 7.908,-3.648 10.455,-6.439 0.526,-0.576 0.975,-1.178 1.366,-1.795 -1.624,-20.147 -12.689,-37.617 -28.777,-47.99" />
      </g>
      <g
         transform="matrix(0.34616031,0,0,-0.34616031,-61.63072,82.424181)"
         id="g10524"
         style="stroke-width:0.842608">
        <g
           id="g10526"
           style="stroke-width:0.842608" />
        <g
           id="g10538"
           style="stroke-width:0.842608">
          <g
             style="opacity:0.399994;stroke-width:0.842608"
             id="g10536"
             clip-path="url(#clipPath10530)">
            <g
               id="g10534"
               transform="translate(272.4639,166.1914)"
               style="stroke-width:0.842608">
              <path
                 inkscape:connector-curvature="0"
                 id="path10532"
                 style="fill:#8ee05d;fill-opacity:1;fill-rule:nonzero;stroke:none;stroke-width:0.842608"
                 d="m 0,0 c 1.365,-0.783 2.279,-2.041 2.491,-3.416 -3.65,-2.393 -8.813,-4.785 -8.38,-9.639 0.047,-0.527 0.128,-0.986 0.225,-1.418 0.827,2.289 1.979,4.438 3.459,6.305 3.338,4.211 8.204,5.273 12.737,4.154 0.021,0.004 0.042,0.01 0.064,0.016 2.813,0.935 5.723,1.455 8.504,1.461 0.92,0.002 1.798,-0.086 2.633,-0.254 -0.185,0.059 -0.37,0.117 -0.564,0.191 -4.252,1.608 -7.66,4.504 -2.034,6.561 4.761,1.74 7.55,-2.113 11.26,-3.078 6.669,-1.737 7.623,3.291 11.912,6.424 -1.019,4.869 -2.596,9.531 -4.664,13.92 C 37.147,20.01 36.446,18.83 35.486,17.711 28.563,9.646 14.548,13.598 7.282,19.186 6.676,19.65 6.099,20.148 5.543,20.666 5.575,17.641 4.667,14.57 2.839,12.168 0.219,8.727 -3.503,4.889 -8.003,4.209 c -3.179,-0.48 -6.635,-0.039 -8.932,2.426 0.75,-2.373 2.073,-4.617 3.947,-6.539 C -8.001,-5.021 -5.329,-3.432 0,0" />
            </g>
          </g>
        </g>
      </g>
      <g
         transform="matrix(0.34616031,0,0,-0.34616031,-61.63072,82.424181)"
         id="g10540"
         style="stroke-width:0.842608">
        <g
           id="g10542"
           style="stroke-width:0.842608" />
        <g
           id="g10554"
           style="stroke-width:0.842608">
          <g
             style="opacity:0.399994;stroke-width:0.842608"
             id="g10552"
             clip-path="url(#clipPath10546)">
            <g
               id="g10550"
               transform="translate(314.5186,157.166)"
               style="stroke-width:0.842608">
              <path
                 inkscape:connector-curvature="0"
                 id="path10548"
                 style="fill:#8ee05d;fill-opacity:1;fill-rule:nonzero;stroke:none;stroke-width:0.842608"
                 d="m 0,0 c -2.547,2.791 -6.534,6.365 -10.455,6.439 -3.368,0.067 -5.342,-1.191 -8.58,-0.546 7.274,-2.319 10.698,-11.063 7.974,-18.659 -1.004,-2.804 -2.472,-5.42 -4.302,-7.713 -0.287,-0.537 -0.6,-1.066 -0.941,-1.582 -4.545,-6.908 -13.673,-14.396 -22.63,-12.722 1.48,-1.862 2.947,-3.731 4.258,-5.666 1.812,-2.674 4.399,-6.34 7.265,-9.336 16.088,10.373 27.153,27.844 28.777,47.99 C 0.976,-1.178 0.526,-0.576 0,0" />
            </g>
          </g>
        </g>
      </g>
      <g
         transform="matrix(0.34616031,0,0,-0.34616031,-61.63072,82.424181)"
         id="g10556"
         style="stroke-width:0.842608">
        <g
           id="g10558"
           style="stroke-width:0.842608" />
        <g
           id="g10570"
           style="stroke-width:0.842608">
          <g
             style="opacity:0.399994;stroke-width:0.842608"
             id="g10568"
             clip-path="url(#clipPath10562)">
            <g
               id="g10566"
               transform="translate(242.5273,213.0234)"
               style="stroke-width:0.842608">
              <path
                 inkscape:connector-curvature="0"
                 id="path10564"
                 style="fill:#8ee05d;fill-opacity:1;fill-rule:nonzero;stroke:none;stroke-width:0.842608"
                 d="m 0,0 c 0.216,-11.475 -6.191,-22.225 -14.903,-29.355 -5.195,-4.254 -14.518,-9.063 -21.305,-6.008 -1.072,0.088 -2.166,0.291 -3.28,0.64 -4.334,1.36 -6.729,4.268 -7.897,7.823 -0.511,-1.155 -0.998,-2.323 -1.442,-3.512 2.162,-2.531 5.65,-2.119 7.279,-4.662 3.735,-5.832 -5.545,-11.813 7.845,-11.811 0.735,-3.713 1.925,-7.869 6.565,-7.261 -0.523,-0.071 1.09,-6.95 1.285,-7.563 -5.203,1.205 -17.173,-3.264 -11.028,-9.979 1.681,-1.835 4.335,-0.898 4.956,-3.81 0.569,-2.682 -2.185,-3.195 -2.756,-5.348 -1.227,-4.625 0.433,-4.154 3.301,-7.631 3.574,-4.334 1.73,-12.82 6.626,-15.767 4.648,-2.799 10.438,1.412 12.956,5.238 2.089,3.174 4.576,6.678 6.944,10.266 -4.208,1.084 -8.188,3.308 -11.444,6.013 -5.196,4.313 -8.787,11.409 -5.298,17.965 1.54,2.895 3.907,4.651 6.595,5.469 -0.083,0.061 -0.169,0.117 -0.249,0.184 -3.037,2.603 -1.381,5.488 -1.915,8.88 -0.447,2.844 -2.483,4.166 -1.535,7.461 1.921,6.684 7.478,10.075 11.344,15.192 0.818,1.084 2.104,1.601 2.755,2.824 0.749,1.412 -0.442,3.332 0.628,4.953 1.431,2.166 4.374,2.229 6.016,4.192 C 6.129,-10.719 4.02,-4.643 0,0" />
            </g>
          </g>
        </g>
      </g>
      <g
         transform="matrix(0.34616031,0,0,-0.34616031,-61.63072,82.424181)"
         id="g10572"
         style="stroke-width:0.842608">
        <g
           id="g10574"
           style="stroke-width:0.842608" />
        <g
           id="g10622"
           style="stroke-width:0.842608">
          <g
             id="g10620"
             clip-path="url(#clipPath10578)"
             style="stroke-width:0.842608">
            <g
               id="g10582"
               transform="translate(218.7095,188.0098)"
               style="stroke-width:0.842608">
              <path
                 inkscape:connector-curvature="0"
                 id="path10580"
                 style="fill:#8ee05d;fill-opacity:1;fill-rule:nonzero;stroke:none;stroke-width:0.842608"
                 d="m 0,0 c -0.11,0.008 -0.048,0.859 -0.224,2.072 -0.097,0.6 -0.268,1.303 -0.645,1.907 -0.35,0.619 -0.983,1.06 -1.622,1.031 C -3.136,4.988 -3.71,4.52 -4.004,3.941 -4.303,3.357 -4.388,2.701 -4.353,2.139 -4.332,1.576 -4.188,1.1 -4.104,0.768 c 0.113,-0.331 0.181,-0.526 0.186,-0.539 -1.248,-0.418 -1.268,-0.426 -1.288,-0.432 -0.02,0.053 -0.021,0.055 -0.021,0.055 0,0 -0.065,0.185 -0.182,0.513 -0.057,0.166 -0.126,0.365 -0.206,0.596 -0.106,0.213 -0.227,0.455 -0.358,0.717 -0.267,0.523 -0.665,1.078 -1.177,1.564 -0.524,0.449 -1.193,0.834 -1.879,0.832 -0.683,0.012 -1.28,-0.416 -1.52,-1.049 -0.155,-0.304 -0.152,-0.658 -0.197,-0.984 0.034,-0.332 0.043,-0.66 0.108,-0.955 0.08,-0.297 0.153,-0.568 0.217,-0.809 0.094,-0.236 0.175,-0.441 0.243,-0.611 0.132,-0.342 0.191,-0.553 0.151,-0.578 -0.039,-0.025 -0.178,0.139 -0.393,0.451 -0.105,0.158 -0.241,0.346 -0.372,0.578 -0.105,0.248 -0.225,0.524 -0.355,0.828 -0.112,0.313 -0.171,0.682 -0.246,1.065 0.006,0.398 -0.034,0.828 0.127,1.267 0.04,0.229 0.158,0.436 0.292,0.643 0.11,0.223 0.293,0.392 0.492,0.557 0.381,0.339 0.901,0.511 1.405,0.556 1.034,0.076 1.951,-0.398 2.649,-0.928 0.681,-0.564 1.192,-1.21 1.536,-1.796 0.168,-0.299 0.322,-0.573 0.458,-0.815 0.104,-0.252 0.195,-0.474 0.269,-0.656 0.148,-0.365 0.232,-0.574 0.232,-0.574 0,0 0,-0.002 0.023,-0.061 l -1.287,-0.432 c -0.005,0.016 -0.073,0.252 -0.188,0.647 -0.084,0.406 -0.223,0.978 -0.215,1.697 -0.002,0.711 0.144,1.58 0.625,2.387 0.466,0.797 1.41,1.51 2.492,1.465 1.09,-0.041 1.93,-0.848 2.275,-1.623 C 0.183,3.557 0.275,2.771 0.299,2.121 0.318,0.814 0.073,-0.01 0,0" />
            </g>
            <g
               id="g10586"
               transform="translate(234.6602,133.7754)"
               style="stroke-width:0.842608">
              <path
                 inkscape:connector-curvature="0"
                 id="path10584"
                 style="fill:#8ee05d;fill-opacity:1;fill-rule:nonzero;stroke:none;stroke-width:0.842608"
                 d="M 0,0 C -0.09,0.057 0.302,0.691 0.509,1.736 0.61,2.256 0.651,2.875 0.568,3.518 0.48,4.154 0.257,4.826 -0.14,5.314 -0.536,5.818 -1.073,6.012 -1.563,5.871 -2.068,5.738 -2.524,5.332 -2.868,4.945 -3.565,4.15 -3.899,3.402 -3.969,3.311 L -5.956,0.682 -5.2,3.861 c 0.045,0.19 0.047,0.198 0.047,0.198 -0.007,0.007 0.058,0.146 0.111,0.453 0.063,0.3 0.118,0.75 0.155,1.3 0.019,0.553 0.023,1.204 -0.053,1.891 -0.043,0.34 -0.081,0.697 -0.172,1.041 L -5.169,9.006 -5.197,9.133 -5.211,9.182 -5.276,9.4 C -5.297,9.527 -6.187,9.061 -6.639,8.652 -7.135,8.197 -7.528,7.674 -7.801,7.186 -8.357,6.207 -8.546,5.443 -8.659,5.469 c -0.069,0.01 -0.063,0.818 0.382,1.947 0.221,0.564 0.582,1.191 1.105,1.775 0.282,0.268 0.566,0.575 0.938,0.78 0.193,0.111 0.307,0.224 0.662,0.34 l 0.46,0.175 0.234,0.09 0.118,0.043 c 0.036,0.01 0.036,-0.058 0.056,-0.084 L -4.332,9.68 -4.237,9.461 -4.189,9.309 -4.1,9.016 c 0.132,-0.391 0.202,-0.778 0.274,-1.155 0.136,-0.754 0.175,-1.463 0.19,-2.074 0.021,-1.215 -0.208,-2.088 -0.208,-2.088 0,0 -0.003,-0.011 -0.07,-0.267 -0.075,0.035 -0.149,0.066 -1.232,0.55 0.092,0.106 0.478,0.889 1.387,1.813 0.459,0.441 1.064,0.971 1.967,1.154 0.446,0.086 0.959,0.035 1.391,-0.178 C 0.034,6.564 0.372,6.229 0.615,5.871 1.574,4.383 1.37,2.674 1.005,1.602 0.613,0.5 0.056,-0.045 0,0" />
            </g>
            <g
               id="g10590"
               transform="translate(215.519,145.625)"
               style="stroke-width:0.842608">
              <path
                 inkscape:connector-curvature="0"
                 id="path10588"
                 style="fill:#8ee05d;fill-opacity:1;fill-rule:nonzero;stroke:none;stroke-width:0.842608"
                 d="M 0,0 C -0.086,-0.037 -0.285,0.152 -0.52,0.422 -0.795,0.666 -1.131,0.99 -1.537,1.172 -1.923,1.381 -2.341,1.467 -2.617,1.449 -2.901,1.457 -3.032,1.367 -3.04,1.389 -3.028,1.352 -3.67,1.43 -3.791,0.561 c -0.078,-0.846 0.333,-1.84 0.145,-1.928 -0.126,-0.078 -0.889,0.689 -1.105,1.9 -0.094,0.61 0.157,1.375 0.612,1.738 0.216,0.2 0.422,0.301 0.572,0.352 0.15,0.059 0.235,0.092 0.235,0.092 C -3.34,2.693 -2.964,2.797 -2.487,2.693 -2.001,2.621 -1.426,2.355 -0.99,1.961 -0.528,1.59 -0.24,1.08 -0.074,0.705 0.051,0.303 0.086,0.035 0,0" />
            </g>
            <g
               id="g10594"
               transform="translate(225.0898,177.5273)"
               style="stroke-width:0.842608">
              <path
                 inkscape:connector-curvature="0"
                 id="path10592"
                 style="fill:#8ee05d;fill-opacity:1;fill-rule:nonzero;stroke:none;stroke-width:0.842608"
                 d="m 0,0 c 0.011,0 0.023,-0.006 0.034,-0.021 l 0.008,-0.014 c 0,0 0.007,0 -0.007,-0.027 -0.019,-0.032 -0.066,-0.024 -0.068,-0.022 -0.03,0.02 -0.045,0.055 -0.05,0.055 -0.035,0.045 -0.071,0.107 -0.108,0.189 -0.077,0.162 -0.162,0.395 -0.257,0.676 -0.185,0.559 -0.429,1.299 -0.675,2.037 -0.129,0.363 -0.262,0.723 -0.401,1.045 -0.044,0.103 -0.057,0.121 -0.062,0.121 -0.01,0.01 -0.018,0.016 -0.026,0.02 -0.016,0.007 -0.025,0.015 -0.039,0.003 -0.108,-0.115 -0.098,-0.126 -0.128,-0.154 0,0 -0.283,-0.222 -0.709,-0.554 -0.392,-0.37 -0.914,-0.883 -1.3,-1.504 -0.431,-0.6 -0.683,-1.297 -0.875,-1.832 -0.155,-0.539 -0.249,-0.93 -0.35,-0.93 -0.087,-0.002 -0.174,0.396 -0.171,1.017 0.039,0.61 0.177,1.452 0.552,2.204 0.329,0.775 0.851,1.449 1.262,1.931 0.443,0.449 0.757,0.74 0.757,0.74 0,0 0.591,0.364 1.478,0.909 0.031,0.035 0.044,-0.004 0.058,-0.041 l 0.045,-0.102 0.09,-0.205 C -0.884,5.406 -0.823,5.268 -0.761,5.121 -0.701,4.979 -0.64,4.83 -0.586,4.674 -0.527,4.51 -0.478,4.355 -0.461,4.287 -0.356,3.914 -0.269,3.518 -0.195,3.119 -0.048,2.326 0.04,1.533 0.071,0.936 0.086,0.637 0.088,0.387 0.077,0.211 0.071,0.123 0.062,0.053 0.051,0.008 0.049,0.004 0.049,-0.004 0.045,-0.004 0.04,-0.002 0.037,0.025 -0.002,-0.033 0.005,-0.035 -0.003,0.008 -0.038,-0.008 -0.056,-0.025 -0.043,-0.027 -0.044,-0.023 l 0.008,0.007 C -0.024,-0.006 -0.012,0 0,0" />
            </g>
            <g
               id="g10598"
               transform="translate(233.293,201.3398)"
               style="stroke-width:0.842608">
              <path
                 inkscape:connector-curvature="0"
                 id="path10596"
                 style="fill:#8ee05d;fill-opacity:1;fill-rule:nonzero;stroke:none;stroke-width:0.842608"
                 d="M 0,0 C -0.091,-0.023 -0.311,0.348 -0.579,0.889 -0.686,1.176 -0.924,1.445 -1.128,1.752 -1.233,1.904 -1.341,2.061 -1.45,2.219 L -1.867,2.637 C -2.141,2.916 -2.398,3.203 -2.718,3.41 -2.858,3.514 -2.994,3.615 -3.122,3.711 -3.146,3.719 -3.162,3.721 -3.173,3.719 -3.183,3.713 -3.184,3.691 -3.184,3.686 -3.19,3.67 -3.153,3.695 -3.243,3.607 -3.359,3.49 -3.426,3.422 -3.426,3.422 c 0,0 -0.071,-0.061 -0.175,-0.184 C -3.71,3.117 -3.866,2.947 -4.054,2.742 -4.354,2.289 -4.771,1.662 -4.902,0.912 -5.023,0.551 -5.007,0.158 -5.055,-0.205 -5.059,-0.57 -5.03,-0.92 -5.03,-1.225 c 0.082,-0.599 0.106,-1.023 0.017,-1.054 -0.122,-0.067 -1.017,1.48 -0.84,3.332 0.029,0.92 0.436,1.783 0.763,2.39 0.202,0.278 0.371,0.51 0.488,0.672 0.118,0.166 0.197,0.248 0.197,0.248 0,0 0.086,0.073 0.238,0.201 0.119,0.102 0.262,0.227 0.426,0.368 0.094,0.08 0.192,0.166 0.297,0.255 L -3.286,5.324 -3.205,5.395 -3.12,5.32 C -2.899,5.119 -2.66,4.902 -2.406,4.672 -2.263,4.533 -2.112,4.389 -1.955,4.238 -1.644,3.975 -1.384,3.605 -1.125,3.246 -0.997,3.066 -0.868,2.887 -0.741,2.711 -0.642,2.518 -0.557,2.32 -0.47,2.131 -0.307,1.75 -0.125,1.414 -0.086,1.084 0.045,0.441 0.091,0.021 0,0" />
            </g>
            <g
               id="g10602"
               transform="translate(273.3984,179.8066)"
               style="stroke-width:0.842608">
              <path
                 inkscape:connector-curvature="0"
                 id="path10600"
                 style="fill:#8ee05d;fill-opacity:1;fill-rule:nonzero;stroke:none;stroke-width:0.842608"
                 d="M 0,0 C -0.105,-0.033 -0.406,0.59 -0.943,1.479 -1.215,1.924 -1.531,2.443 -1.87,2.998 -1.956,3.137 -2.044,3.279 -2.132,3.422 -2.22,3.568 -2.324,3.744 -2.339,3.752 L -2.438,3.885 C -2.489,3.867 -2.562,3.789 -2.617,3.75 -2.685,3.689 -2.71,3.676 -2.802,3.59 L -3.145,3.258 C -3.392,3.053 -3.544,2.787 -3.731,2.564 -3.9,2.328 -4.005,2.07 -4.134,1.844 -4.208,1.592 -4.294,1.363 -4.352,1.145 -4.385,0.918 -4.414,0.709 -4.44,0.523 -4.461,0.34 -4.441,0.168 -4.444,0.033 c 0.002,-0.273 0.007,-0.429 0.007,-0.429 0,0 0.024,-0.301 0.068,-0.864 l 0.298,-3.783 -1.548,3.432 c -0.196,0.433 -0.433,1.109 -1.014,1.642 -0.294,0.274 -0.645,0.537 -1.057,0.83 l -0.153,0.11 C -7.9,1.012 -7.945,1.045 -7.945,1.051 l -0.099,0.09 C -8.117,1.205 -8.16,1.27 -8.236,1.346 -8.247,1.357 -8.261,1.377 -8.27,1.381 L -8.281,1.35 -8.307,1.283 C -8.323,1.236 -8.345,1.186 -8.348,1.127 -8.372,1.01 -8.38,0.916 -8.338,0.588 c 0.088,-0.537 0.26,-1.035 0.453,-1.447 0.378,-0.828 0.674,-1.371 0.593,-1.42 -0.066,-0.043 -0.491,0.388 -1.028,1.183 -0.271,0.395 -0.538,0.912 -0.716,1.535 -0.036,0.166 -0.07,0.293 -0.108,0.545 -0.01,0.227 0.004,0.463 0.006,0.705 -0.005,0.243 0.034,0.491 0.07,0.747 l 0.051,0.386 0.027,0.198 c 0.013,0.048 0.03,0.078 0.046,0.119 0.311,-0.252 0.631,-0.553 0.966,-0.795 L -7.47,1.959 C -7.372,1.883 -7.314,1.844 -7.269,1.82 l 0.156,-0.093 c 0.409,-0.243 0.853,-0.518 1.246,-0.836 0.819,-0.657 1.196,-1.502 1.46,-2.016 -0.816,-0.229 -0.868,-0.242 -1.25,-0.35 -0.088,0.659 -0.136,1.01 -0.136,1.01 0,0 0.002,0.192 0.018,0.529 0.014,0.168 0.007,0.373 0.046,0.608 0.05,0.234 0.105,0.498 0.166,0.787 0.091,0.281 0.222,0.578 0.347,0.893 0.183,0.283 0.351,0.607 0.581,0.886 0.249,0.264 0.475,0.573 0.779,0.789 l 0.434,0.354 c 0.18,0.129 0.457,0.295 0.676,0.437 l 0.342,0.217 0.168,0.108 c 0.051,0.007 0.126,0.138 0.149,0.021 0.132,-0.262 0.263,-0.523 0.392,-0.781 0.168,-0.35 0.332,-0.692 0.492,-1.022 0.287,-0.59 0.533,-1.158 0.734,-1.65 C -0.065,0.729 0.075,0.018 0,0" />
            </g>
            <g
               id="g10606"
               transform="translate(293.4512,195.7559)"
               style="stroke-width:0.842608">
              <path
                 inkscape:connector-curvature="0"
                 id="path10604"
                 style="fill:#8ee05d;fill-opacity:1;fill-rule:nonzero;stroke:none;stroke-width:0.842608"
                 d="m 0,0 c -0.099,0.039 0.171,0.871 0.403,2.137 0.113,0.634 0.226,1.377 0.251,2.17 0.036,0.396 0,0.806 0.002,1.218 L 0.598,6.143 C 0.586,6.246 0.587,6.35 0.562,6.451 L 0.533,6.605 0.521,6.648 C 0.494,6.691 0.52,6.793 0.439,6.75 0.352,6.736 0.422,6.732 0.158,6.705 -0.224,6.639 -0.592,6.514 -0.934,6.393 -1.255,6.215 -1.599,6.107 -1.852,5.883 -1.985,5.785 -2.116,5.689 -2.242,5.598 -2.363,5.5 -2.456,5.379 -2.56,5.279 -2.659,5.176 -2.754,5.076 -2.846,4.982 -2.924,4.877 -2.987,4.768 -3.053,4.672 -3.171,4.473 -3.315,4.322 -3.368,4.16 -3.5,3.854 -3.574,3.678 -3.574,3.678 c 0,0 -0.028,-0.057 -0.1,-0.209 -0.045,-0.166 -0.12,-0.432 -0.232,-0.842 l -1.205,-4.373 -0.107,4.48 c -0.006,0.274 -0.009,0.653 -0.087,1.121 -0.083,0.473 -0.221,1.026 -0.384,1.676 -0.073,0.324 -0.158,0.67 -0.205,1.037 -0.008,0.071 -0.029,0.231 -0.029,0.231 l 0.004,0.056 0.009,0.147 C -5.977,7.006 -6.073,6.969 -6.203,6.926 -6.471,6.742 -6.781,6.605 -7.024,6.393 -8.046,5.58 -8.536,4.33 -8.755,3.402 -8.876,2.934 -8.937,2.537 -8.979,2.26 -9.028,1.982 -9.074,1.824 -9.115,1.824 c -0.04,0 -0.073,0.158 -0.098,0.444 -0.034,0.289 -0.047,0.701 0.008,1.209 0.088,0.994 0.471,2.464 1.621,3.554 0.272,0.276 0.619,0.473 0.935,0.711 l 0.822,0.379 0.426,0.193 0.214,0.098 0.11,0.049 c 0.015,0.006 0.039,0.023 0.049,0.019 l 0.007,-0.056 c 0.029,-0.305 0.057,-0.608 0.085,-0.91 l 0.057,-0.471 c 0.022,-0.18 0.033,-0.186 0.05,-0.285 0.059,-0.315 0.157,-0.623 0.245,-0.928 0.189,-0.598 0.382,-1.197 0.506,-1.73 0.123,-0.543 0.157,-1.022 0.181,-1.366 -1.007,0.084 -0.608,0.051 -1.313,0.11 0.129,0.523 0.213,0.863 0.265,1.072 0.082,0.201 0.113,0.275 0.113,0.275 0,0 0.108,0.221 0.297,0.606 0.083,0.197 0.265,0.392 0.433,0.639 0.091,0.117 0.181,0.248 0.287,0.375 0.122,0.115 0.249,0.236 0.381,0.363 0.136,0.121 0.265,0.262 0.424,0.377 0.165,0.107 0.334,0.219 0.509,0.334 0.334,0.254 0.763,0.377 1.171,0.562 0.427,0.127 0.883,0.248 1.343,0.295 0.335,0.022 0.671,0.041 1.009,0.063 L 1.304,7.822 C 1.369,7.793 1.343,7.648 1.367,7.568 L 1.439,7.002 1.493,6.553 C 1.511,6.439 1.504,6.324 1.509,6.213 L 1.52,5.537 C 1.484,5.094 1.484,4.654 1.409,4.24 1.308,3.404 1.112,2.646 0.916,2.012 0.515,0.74 0.074,-0.031 0,0" />
            </g>
            <g
               id="g10610"
               transform="translate(290.2598,177.0723)"
               style="stroke-width:0.842608">
              <path
                 inkscape:connector-curvature="0"
                 id="path10608"
                 style="fill:#8ee05d;fill-opacity:1;fill-rule:nonzero;stroke:none;stroke-width:0.842608"
                 d="M 0,0 C -0.205,0.035 -0.02,1.354 -0.259,2.502 -0.383,3.066 -0.669,3.514 -0.866,3.57 -1.04,3.654 -1.168,3.566 -1.175,3.568 c 0,0 -0.036,-0.007 -0.107,-0.004 C -1.357,3.521 -1.48,3.5 -1.626,3.398 -1.939,3.229 -2.295,2.777 -2.606,2.285 -3.207,1.258 -3.441,-0.021 -3.645,0 c -0.165,0.002 -0.293,1.344 0.164,2.68 0.252,0.652 0.602,1.31 1.085,1.705 0.221,0.207 0.485,0.334 0.651,0.426 0.205,0.058 0.323,0.093 0.323,0.093 0.003,-0.011 0.114,0.041 0.34,0.026 C -0.849,4.906 -0.515,4.865 -0.195,4.627 0.457,4.164 0.667,3.316 0.694,2.615 0.704,1.176 0.151,-0.041 0,0" />
            </g>
            <g
               id="g10614"
               transform="translate(285.248,143.8027)"
               style="stroke-width:0.842608">
              <path
                 inkscape:connector-curvature="0"
                 id="path10612"
                 style="fill:#8ee05d;fill-opacity:1;fill-rule:nonzero;stroke:none;stroke-width:0.842608"
                 d="M 0,0 C -0.047,-0.006 -0.123,0.166 -0.221,0.465 -0.324,0.764 -0.413,1.201 -0.623,1.686 -0.799,2.178 -1.056,2.74 -1.428,3.23 -1.767,3.75 -2.312,4.131 -2.828,4.172 -3.35,4.219 -3.844,3.893 -4.198,3.463 -4.283,3.348 -4.368,3.236 -4.45,3.129 L -4.638,2.754 C -4.776,2.523 -4.841,2.26 -4.92,2.031 -5.088,1.578 -5.104,1.146 -5.176,0.871 -5.197,0.578 -5.209,0.41 -5.209,0.41 -5.21,0.502 -5.23,0.016 -5.268,-0.738 -5.269,-1.111 -5.27,-1.564 -5.272,-2.082 c 0,-0.252 0,-0.52 -10e-4,-0.803 0,-0.135 -0.001,-0.273 -0.001,-0.416 -0.004,-0.107 -0.008,-0.217 -0.012,-0.332 -0.386,0.658 -0.801,1.365 -1.236,2.108 l -0.174,0.291 c -0.06,0.105 -0.116,0.197 -0.158,0.23 l -0.281,0.299 -0.283,0.303 c -0.068,0.056 -0.122,0.09 -0.184,0.136 -0.234,0.184 -0.517,0.338 -0.826,0.53 -0.121,0.084 -0.168,0.132 -0.272,0.24 -0.08,-0.067 -0.18,-0.272 -0.094,-0.981 0.077,-0.582 0.273,-1.113 0.48,-1.572 0.41,-0.918 0.65,-1.56 0.566,-1.597 -0.082,-0.036 -0.461,0.5 -1.018,1.361 -0.279,0.428 -0.582,0.99 -0.75,1.67 -0.032,0.172 -0.081,0.347 -0.098,0.525 -0.016,0.147 -0.012,0.42 -0.007,0.701 -0.009,0.276 0.047,0.545 0.07,0.83 l 0.047,0.43 c 0.015,0.147 0.028,0.307 0.066,0.373 0.239,-0.185 0.466,-0.383 0.738,-0.572 0.25,-0.188 0.563,-0.422 0.773,-0.518 0.294,-0.152 0.63,-0.3 0.942,-0.508 l 0.228,-0.142 0.083,-0.059 0.111,-0.08 c 0.029,-0.015 0.042,-0.023 0.047,-0.023 0.004,0.035 -0.029,0.138 -0.032,0.138 -0.01,0.026 -0.018,-0.005 -0.011,0.075 0,0 0.025,0.191 0.069,0.525 0.101,0.33 0.152,0.815 0.391,1.365 0.113,0.276 0.213,0.58 0.41,0.875 0.09,0.149 0.182,0.303 0.277,0.459 0.124,0.143 0.249,0.289 0.377,0.436 0.521,0.56 1.396,1.078 2.335,0.908 0.918,-0.168 1.569,-0.84 1.902,-1.471 C -0.421,3.021 -0.225,2.383 -0.117,1.836 0.025,1.295 0.03,0.832 0.049,0.51 0.06,0.189 0.046,0.006 0,0" />
            </g>
            <g
               id="g10618"
               transform="translate(298.9199,133.3203)"
               style="stroke-width:0.842608">
              <path
                 inkscape:connector-curvature="0"
                 id="path10616"
                 style="fill:#8ee05d;fill-opacity:1;fill-rule:nonzero;stroke:none;stroke-width:0.842608"
                 d="M 0,0 C -0.092,0.043 0.036,0.492 0.198,1.152 0.365,1.807 0.561,2.695 0.512,3.527 0.498,4.375 0.114,5.039 -0.276,5.205 -0.468,5.305 -0.655,5.314 -0.784,5.322 -0.917,5.312 -0.993,5.307 -0.993,5.307 -0.993,5.312 -1.069,5.297 -1.209,5.285 -1.35,5.258 -1.556,5.209 -1.787,5.076 -2.263,4.84 -2.803,4.242 -3.057,3.467 -3.613,1.887 -2.981,0.045 -3.19,0 c -0.072,-0.027 -0.353,0.359 -0.581,1.039 -0.227,0.672 -0.424,1.66 -0.213,2.67 0.177,1.012 0.817,1.967 1.529,2.426 0.346,0.246 0.691,0.373 0.938,0.443 0.254,0.059 0.405,0.08 0.405,0.08 C -1.13,6.633 -0.457,6.787 0.378,6.271 0.777,6.01 1.127,5.559 1.301,5.055 1.476,4.551 1.527,4.008 1.472,3.506 1.389,2.49 1.019,1.594 0.692,0.967 0.368,0.336 0.077,-0.037 0,0" />
            </g>
          </g>
        </g>
      </g>
      <g
         transform="matrix(0.34616031,0,0,-0.34616031,-61.63072,82.424181)"
         id="g10624"
         style="stroke-width:0.842608">
        <g
           id="g10626"
           style="stroke-width:0.842608" />
        <g
           id="g10638"
           style="stroke-width:0.842608">
          <g
             style="opacity:0.600006;stroke-width:0.842608"
             id="g10636"
             clip-path="url(#clipPath10630)">
            <g
               id="g10634"
               transform="translate(298.1875,204.5859)"
               style="stroke-width:0.842608">
              <path
                 inkscape:connector-curvature="0"
                 id="path10632"
                 style="fill:#0097e0;fill-opacity:1;fill-rule:nonzero;stroke:none;stroke-width:0.842608"
                 d="m 0,0 c 4.133,-7.914 6.482,-16.904 6.482,-26.451 0,-31.604 -25.619,-57.225 -57.223,-57.225 -29.275,0 -53.399,21.988 -56.798,50.35 -0.598,-3.496 -0.928,-7.08 -0.928,-10.746 0,-34.903 28.293,-63.196 63.196,-63.196 34.902,0 63.195,28.293 63.195,63.196 C 17.924,-26.926 11.085,-11.385 0,0" />
            </g>
          </g>
        </g>
      </g>
      <g
         transform="matrix(0.34616031,0,0,-0.34616031,-61.63072,82.424181)"
         id="g10640"
         style="stroke-width:0.842608">
        <g
           id="g10642"
           style="stroke-width:0.842608" />
        <g
           id="g10654"
           style="stroke-width:0.842608">
          <g
             style="opacity:0.399994;stroke-width:0.842608"
             id="g10652"
             clip-path="url(#clipPath10646)">
            <g
               id="g10650"
               transform="translate(281.0137,208.9336)"
               style="stroke-width:0.842608">
              <path
                 inkscape:connector-curvature="0"
                 id="path10648"
                 style="fill:#8ee05d;fill-opacity:1;fill-rule:nonzero;stroke:none;stroke-width:0.842608"
                 d="m 0,0 c -8.538,7.674 -19.826,12.346 -32.211,12.346 -26.638,0 -48.231,-21.594 -48.231,-48.231 0,-10.717 3.509,-20.601 9.423,-28.605 C -63.735,-30.592 -34.904,-3.939 0,0" />
            </g>
          </g>
        </g>
      </g>
      <g
         transform="matrix(0.34616031,0,0,-0.34616031,-61.63072,82.424181)"
         id="g10656"
         style="stroke-width:0.842608">
        <g
           id="g10658"
           style="stroke-width:0.842608" />
        <g
           id="g10698"
           style="stroke-width:0.842608">
          <g
             style="opacity:0.399994;stroke-width:0.842608"
             id="g10696"
             clip-path="url(#clipPath10662)">
            <g
               id="g10682"
               style="stroke-width:0.842608">
              <g
                 id="g10672"
                 style="stroke-width:0.842608" />
              <g
                 id="g10680"
                 style="stroke-width:0.842608">
                <g
                   id="g10678"
                   clip-path="url(#clipPath10666)"
                   style="stroke-width:0.842608">
                  <g
                     id="g10676"
                     transform="translate(294.0078,122.0039)"
                     style="stroke-width:0.842608">
                    <path
                       inkscape:connector-curvature="0"
                       id="path10674"
                       style="fill:#8ee05d;fill-opacity:1;fill-rule:nonzero;stroke:none;stroke-width:0.842608"
                       d="m 0,0 c 0.916,-1.346 -0.099,-3.635 -2.266,-5.109 -2.168,-1.477 -4.67,-1.584 -5.587,-0.239 -0.917,1.346 0.098,3.635 2.267,5.112 C -3.418,1.238 -0.916,1.346 0,0" />
                  </g>
                </g>
              </g>
            </g>
            <g
               id="g10694"
               style="stroke-width:0.842608">
              <g
                 id="g10684"
                 style="stroke-width:0.842608" />
              <g
                 id="g10692"
                 style="stroke-width:0.842608">
                <g
                   id="g10690"
                   clip-path="url(#clipPath10670)"
                   style="stroke-width:0.842608">
                  <g
                     id="g10688"
                     transform="translate(302.4932,130.3203)"
                     style="stroke-width:0.842608">
                    <path
                       inkscape:connector-curvature="0"
                       id="path10686"
                       style="fill:#8ee05d;fill-opacity:1;fill-rule:nonzero;stroke:none;stroke-width:0.842608"
                       d="m 0,0 c 0.815,-0.941 0.247,-2.773 -1.273,-4.092 -1.519,-1.316 -3.414,-1.619 -4.233,-0.676 -0.817,0.944 -0.246,2.774 1.273,4.092 C -2.713,0.641 -0.818,0.945 0,0" />
                  </g>
                </g>
              </g>
            </g>
          </g>
        </g>
      </g>
      <g
         transform="matrix(0.34616031,0,0,-0.34616031,-61.63072,82.424181)"
         id="g10700"
         style="stroke-width:0.842608">
        <g
           id="g10702"
           style="stroke-width:0.842608" />
        <g
           id="g10742"
           style="stroke-width:0.842608">
          <g
             style="opacity:0.399994;stroke-width:0.842608"
             id="g10740"
             clip-path="url(#clipPath10706)">
            <g
               id="g10726"
               style="stroke-width:0.842608">
              <g
                 id="g10716"
                 style="stroke-width:0.842608" />
              <g
                 id="g10724"
                 style="stroke-width:0.842608">
                <g
                   id="g10722"
                   clip-path="url(#clipPath10710)"
                   style="stroke-width:0.842608">
                  <g
                     id="g10720"
                     transform="translate(225.564,209.2402)"
                     style="stroke-width:0.842608">
                    <path
                       inkscape:connector-curvature="0"
                       id="path10718"
                       style="fill:#8ee05d;fill-opacity:1;fill-rule:nonzero;stroke:none;stroke-width:0.842608"
                       d="M 0,0 C -0.838,1.395 0.304,3.623 2.55,4.975 4.798,6.326 7.302,6.293 8.142,4.896 8.982,3.502 7.84,1.273 5.591,-0.078 3.344,-1.43 0.84,-1.395 0,0" />
                  </g>
                </g>
              </g>
            </g>
            <g
               id="g10738"
               style="stroke-width:0.842608">
              <g
                 id="g10728"
                 style="stroke-width:0.842608" />
              <g
                 id="g10736"
                 style="stroke-width:0.842608">
                <g
                   id="g10734"
                   clip-path="url(#clipPath10714)"
                   style="stroke-width:0.842608">
                  <g
                     id="g10732"
                     transform="translate(216.626,201.4141)"
                     style="stroke-width:0.842608">
                    <path
                       inkscape:connector-curvature="0"
                       id="path10730"
                       style="fill:#8ee05d;fill-opacity:1;fill-rule:nonzero;stroke:none;stroke-width:0.842608"
                       d="m 0,0 c -0.762,0.986 -0.091,2.783 1.501,4.014 1.59,1.228 3.5,1.423 4.263,0.435 C 6.527,3.463 5.854,1.666 4.265,0.436 2.672,-0.793 0.763,-0.99 0,0" />
                  </g>
                </g>
              </g>
            </g>
          </g>
        </g>
      </g>
      <g
         transform="matrix(0.34616031,0,0,-0.34616031,-61.63072,82.424181)"
         id="g10744"
         style="stroke-width:0.842608">
        <g
           id="g10746"
           style="stroke-width:0.842608" />
        <g
           id="g10810"
           style="stroke-width:0.842608">
          <g
             style="opacity:0.600006;stroke-width:0.842608"
             id="g10808"
             clip-path="url(#clipPath10750)">
            <g
               id="g10754"
               transform="translate(235.2676,167.3496)"
               style="stroke-width:0.842608">
              <path
                 inkscape:connector-curvature="0"
                 id="path10752"
                 style="fill:#0097e0;fill-opacity:1;fill-rule:nonzero;stroke:none;stroke-width:0.842608"
                 d="m 0,0 c 0,-0.588 -0.476,-1.064 -1.063,-1.064 -0.587,0 -1.063,0.476 -1.063,1.064 0,0.586 0.476,1.062 1.063,1.062 C -0.476,1.062 0,0.586 0,0" />
            </g>
            <g
               id="g10758"
               transform="translate(241.6484,160.8164)"
               style="stroke-width:0.842608">
              <path
                 inkscape:connector-curvature="0"
                 id="path10756"
                 style="fill:#0097e0;fill-opacity:1;fill-rule:nonzero;stroke:none;stroke-width:0.842608"
                 d="m 0,0 c 0,-1.174 -0.952,-2.127 -2.127,-2.127 -1.174,0 -2.127,0.953 -2.127,2.127 0,1.174 0.953,2.127 2.127,2.127 C -0.952,2.127 0,1.174 0,0" />
            </g>
            <g
               id="g10762"
               transform="translate(235.2676,158.8418)"
               style="stroke-width:0.842608">
              <path
                 inkscape:connector-curvature="0"
                 id="path10760"
                 style="fill:#0097e0;fill-opacity:1;fill-rule:nonzero;stroke:none;stroke-width:0.842608"
                 d="m 0,0 c 0,-0.252 -0.204,-0.455 -0.455,-0.455 -0.253,0 -0.456,0.203 -0.456,0.455 0,0.252 0.203,0.457 0.456,0.457 C -0.204,0.457 0,0.252 0,0" />
            </g>
            <g
               id="g10766"
               transform="translate(260.79,128.1543)"
               style="stroke-width:0.842608">
              <path
                 inkscape:connector-curvature="0"
                 id="path10764"
                 style="fill:#0097e0;fill-opacity:1;fill-rule:nonzero;stroke:none;stroke-width:0.842608"
                 d="m 0,0 c 0,-0.754 -0.612,-1.365 -1.367,-1.365 -0.755,0 -1.367,0.611 -1.367,1.365 0,0.756 0.612,1.367 1.367,1.367 C -0.612,1.367 0,0.756 0,0" />
            </g>
            <g
               id="g10770"
               transform="translate(261.3965,136.6621)"
               style="stroke-width:0.842608">
              <path
                 inkscape:connector-curvature="0"
                 id="path10768"
                 style="fill:#0097e0;fill-opacity:1;fill-rule:nonzero;stroke:none;stroke-width:0.842608"
                 d="m 0,0 c 0,-0.754 -0.612,-1.367 -1.366,-1.367 -0.756,0 -1.367,0.613 -1.367,1.367 0,0.756 0.611,1.367 1.367,1.367 C -0.612,1.367 0,0.756 0,0" />
            </g>
            <g
               id="g10774"
               transform="translate(234.9639,109.3184)"
               style="stroke-width:0.842608">
              <path
                 inkscape:connector-curvature="0"
                 id="path10772"
                 style="fill:#0097e0;fill-opacity:1;fill-rule:nonzero;stroke:none;stroke-width:0.842608"
                 d="m 0,0 c 0,-0.754 -0.611,-1.367 -1.367,-1.367 -0.755,0 -1.367,0.613 -1.367,1.367 0,0.756 0.612,1.367 1.367,1.367 C -0.611,1.367 0,0.756 0,0" />
            </g>
            <g
               id="g10778"
               transform="translate(239.5215,114.3301)"
               style="stroke-width:0.842608">
              <path
                 inkscape:connector-curvature="0"
                 id="path10776"
                 style="fill:#0097e0;fill-opacity:1;fill-rule:nonzero;stroke:none;stroke-width:0.842608"
                 d="m 0,0 c 0,-1.174 -0.952,-2.127 -2.127,-2.127 -1.174,0 -2.127,0.953 -2.127,2.127 0,1.176 0.953,2.129 2.127,2.129 C -0.952,2.129 0,1.176 0,0" />
            </g>
            <g
               id="g10782"
               transform="translate(241.3447,108.2559)"
               style="stroke-width:0.842608">
              <path
                 inkscape:connector-curvature="0"
                 id="path10780"
                 style="fill:#0097e0;fill-opacity:1;fill-rule:nonzero;stroke:none;stroke-width:0.842608"
                 d="m 0,0 c 0,-0.336 -0.272,-0.609 -0.608,-0.609 -0.335,0 -0.608,0.273 -0.608,0.609 0,0.334 0.273,0.607 0.608,0.607 C -0.272,0.607 0,0.334 0,0" />
            </g>
            <g
               id="g10786"
               transform="translate(200.9355,150.9414)"
               style="stroke-width:0.842608">
              <path
                 inkscape:connector-curvature="0"
                 id="path10784"
                 style="fill:#0097e0;fill-opacity:1;fill-rule:nonzero;stroke:none;stroke-width:0.842608"
                 d="m 0,0 c 0,-0.588 -0.476,-1.062 -1.064,-1.062 -0.586,0 -1.063,0.474 -1.063,1.062 0,0.588 0.477,1.064 1.063,1.064 C -0.476,1.064 0,0.588 0,0" />
            </g>
            <g
               id="g10790"
               transform="translate(201.8472,156.8672)"
               style="stroke-width:0.842608">
              <path
                 inkscape:connector-curvature="0"
                 id="path10788"
                 style="fill:#0097e0;fill-opacity:1;fill-rule:nonzero;stroke:none;stroke-width:0.842608"
                 d="m 0,0 c 0,-0.838 -0.68,-1.52 -1.52,-1.52 -0.839,0 -1.519,0.682 -1.519,1.52 0,0.838 0.68,1.52 1.519,1.52 C -0.68,1.52 0,0.838 0,0" />
            </g>
            <g
               id="g10794"
               transform="translate(269.6006,214.291)"
               style="stroke-width:0.842608">
              <path
                 inkscape:connector-curvature="0"
                 id="path10792"
                 style="fill:#0097e0;fill-opacity:1;fill-rule:nonzero;stroke:none;stroke-width:0.842608"
                 d="m 0,0 c 0,-0.672 -0.545,-1.215 -1.216,-1.215 -0.67,0 -1.215,0.543 -1.215,1.215 0,0.672 0.545,1.215 1.215,1.215 C -0.545,1.215 0,0.672 0,0" />
            </g>
            <g
               id="g10798"
               transform="translate(268.3848,207.9082)"
               style="stroke-width:0.842608">
              <path
                 inkscape:connector-curvature="0"
                 id="path10796"
                 style="fill:#0097e0;fill-opacity:1;fill-rule:nonzero;stroke:none;stroke-width:0.842608"
                 d="m 0,0 c 0,-1.006 -0.815,-1.822 -1.823,-1.822 -1.006,0 -1.822,0.816 -1.822,1.822 0,1.008 0.816,1.824 1.822,1.824 C -0.815,1.824 0,1.008 0,0" />
            </g>
            <g
               id="g10802"
               transform="translate(269.9043,202.2891)"
               style="stroke-width:0.842608">
              <path
                 inkscape:connector-curvature="0"
                 id="path10800"
                 style="fill:#0097e0;fill-opacity:1;fill-rule:nonzero;stroke:none;stroke-width:0.842608"
                 d="m 0,0 c 0,-0.252 -0.203,-0.457 -0.455,-0.457 -0.252,0 -0.455,0.205 -0.455,0.457 0,0.252 0.203,0.455 0.455,0.455 C -0.203,0.455 0,0.252 0,0" />
            </g>
            <g
               id="g10806"
               transform="translate(278.4111,109.3184)"
               style="stroke-width:0.842608">
              <path
                 inkscape:connector-curvature="0"
                 id="path10804"
                 style="fill:#0097e0;fill-opacity:1;fill-rule:nonzero;stroke:none;stroke-width:0.842608"
                 d="m 0,0 c 0,-0.924 -0.749,-1.672 -1.671,-1.672 -0.922,0 -1.671,0.748 -1.671,1.672 0,0.922 0.749,1.672 1.671,1.672 C -0.749,1.672 0,0.922 0,0" />
            </g>
          </g>
        </g>
      </g>
    </g>
    <path
       style="fill:#006aa7;fill-opacity:1;stroke-width:0.499999;stroke-linecap:round;stroke-linejoin:bevel"
       id="path24716"
       sodipodi:type="arc"
       sodipodi:cx="-26.449356"
       sodipodi:cy="-26.424408"
       sodipodi:rx="26.458334"
       sodipodi:ry="26.458334"
       sodipodi:start="0"
       sodipodi:end="2.7052603"
       sodipodi:arc-type="slice"
       transform="matrix(0,-1,-1,0,0,0)"
       d="M 0.00897789,-26.424408 A 26.458334,26.458334 0 0 1 -20.722724,-0.59324227 26.458334,26.458334 0 0 1 -50.42875,-15.242632 l 23.979394,-11.181776 z" />
    <path
       id="rect24730"
       style="fill:#fecc00;fill-opacity:1;stroke-width:1.88976;stroke-linecap:round;stroke-linejoin:bevel"
       d="M 80 0 L 80 80 L 0 80 L 0 120 L 80 120 L 80 200 L 120 200 L 120 120 L 200 120 L 200 80 L 120 80 L 120 0 L 80 0 z "
       transform="scale(0.26458333)"
       clip-path="url(#clipPath25001)" />
    <text
       xml:space="preserve"
       style="font-style:normal;font-variant:normal;font-weight:500;font-stretch:normal;font-size:7.43823px;line-height:1.25;font-family:'Roboto Condensed';-inkscape-font-specification:'Roboto Condensed, Medium';font-variant-ligatures:normal;font-variant-caps:normal;font-variant-numeric:normal;font-variant-east-asian:normal;letter-spacing:0px;word-spacing:0px;fill:#000000;fill-opacity:1;stroke:none;stroke-width:0.264583"
       x="7.9663405"
       y="19.229582"
       id="text25007"><tspan
         sodipodi:role="line"
         id="tspan25005"
         x="7.9663405"
         y="19.229582"
         style="font-style:normal;font-variant:normal;font-weight:500;font-stretch:normal;font-size:7.43823px;font-family:'Roboto Condensed';-inkscape-font-specification:'Roboto Condensed, Medium';font-variant-ligatures:normal;font-variant-caps:normal;font-variant-numeric:normal;font-variant-east-asian:normal;fill:#ffffff;fill-opacity:1;stroke-width:0.264583">43%</tspan></text>
    <text
       xml:space="preserve"
       style="font-style:normal;font-variant:normal;font-weight:500;font-stretch:normal;font-size:7.43823px;line-height:1.25;font-family:'Roboto Condensed';-inkscape-font-specification:'Roboto Condensed, Medium';font-variant-ligatures:normal;font-variant-caps:normal;font-variant-numeric:normal;font-variant-east-asian:normal;letter-spacing:0px;word-spacing:0px;fill:#000000;fill-opacity:1;stroke:none;stroke-width:0.264583"
       x="21.467392"
       y="49.858948"
       id="text25011"><tspan
         sodipodi:role="line"
         id="tspan25009"
         x="21.467392"
         y="49.858948"
         style="font-style:normal;font-variant:normal;font-weight:500;font-stretch:normal;font-size:7.43823px;font-family:'Roboto Condensed';-inkscape-font-specification:'Roboto Condensed, Medium';font-variant-ligatures:normal;font-variant-caps:normal;font-variant-numeric:normal;font-variant-east-asian:normal;fill:#ffffff;fill-opacity:1;stroke-width:0.264583">57%</tspan></text>
  </g>
</svg>
