<?xml version="1.0" encoding="UTF-8" standalone="no"?>
<svg
   xmlns:dc="http://purl.org/dc/elements/1.1/"
   xmlns:cc="http://creativecommons.org/ns#"
   xmlns:rdf="http://www.w3.org/1999/02/22-rdf-syntax-ns#"
   xmlns:svg="http://www.w3.org/2000/svg"
   xmlns="http://www.w3.org/2000/svg"
   xmlns:sodipodi="http://sodipodi.sourceforge.net/DTD/sodipodi-0.dtd"
   xmlns:inkscape="http://www.inkscape.org/namespaces/inkscape"
   width="200"
   height="200"
   viewBox="0 0 52.916665 52.916668"
   version="1.1"
   id="svg25037"
   inkscape:version="1.0.2 (e86c870879, 2021-01-15)"
   sodipodi:docname="sverige-flyg.svg">
  <defs
     id="defs25031">
    <clipPath
       id="clipPath28080"
       clipPathUnits="userSpaceOnUse">
      <path
         inkscape:connector-curvature="0"
         id="path28078"
         d="m 1923.57,7180.23 c 0,-380.7 -308.61,-689.31 -689.31,-689.31 -380.697,0 -689.322,308.61 -689.322,689.31 0,380.7 308.625,689.32 689.322,689.32 380.7,0 689.31,-308.62 689.31,-689.32" />
    </clipPath>
  </defs>
  <sodipodi:namedview
     id="base"
     pagecolor="#ffffff"
     bordercolor="#666666"
     borderopacity="1.0"
     inkscape:pageopacity="0.0"
     inkscape:pageshadow="2"
     inkscape:zoom="2.8"
     inkscape:cx="-77.96552"
     inkscape:cy="128.16996"
     inkscape:document-units="mm"
     inkscape:current-layer="layer1"
     inkscape:document-rotation="0"
     showgrid="false"
     inkscape:window-width="2560"
     inkscape:window-height="1346"
     inkscape:window-x="0"
     inkscape:window-y="27"
     inkscape:window-maximized="1"
     units="px" />
  <metadata
     id="metadata25034">
    <rdf:RDF>
      <cc:Work
         rdf:about="">
        <dc:format>image/svg+xml</dc:format>
        <dc:type
           rdf:resource="http://purl.org/dc/dcmitype/StillImage" />
        <dc:title></dc:title>
      </cc:Work>
    </rdf:RDF>
  </metadata>
  <g
     inkscape:label="Layer 1"
     inkscape:groupmode="layer"
     id="layer1">
    <rect
       style="fill:#162b5b;fill-opacity:1;stroke-width:0.499999;stroke-linecap:round;stroke-linejoin:bevel"
       id="rect25618"
       width="4.2800484"
       height="31.455851"
       x="4.253931"
       y="14.708529"
       ry="0.7802251" />
    <g
       clip-path="url(#clipPath28080)"
       id="g28076"
       style="stroke-width:18.134"
       transform="matrix(0.00194539,0,0,-0.00194539,3.9332324,58.226616)">
      <path
         inkscape:connector-curvature="0"
         id="path28082"
         style="fill:#006aa7;fill-opacity:1;fill-rule:nonzero;stroke:none;stroke-width:18.134"
         d="M 123.691,7868.38 H 2322.22 V 6492.08 H 123.691 v 1376.3" />
      <path
         inkscape:connector-curvature="0"
         id="path28084"
         style="fill:#fecc00;fill-opacity:1;fill-rule:nonzero;stroke:none;stroke-width:18.134"
         d="M 125.473,7318.43 H 2324.04 V 7045.44 H 125.473 v 272.99" />
      <path
         inkscape:connector-curvature="0"
         id="path28086"
         style="fill:#fecc00;fill-opacity:1;fill-rule:nonzero;stroke:none;stroke-width:18.134"
         d="M 807.105,7868.38 H 1092.05 V 6492.08 H 807.105 v 1376.3" />
    </g>
    <path
       id="path641"
       sodipodi:nodetypes="cccccccccccccccccccccccccccc"
       style="fill:#000000;fill-opacity:1;fill-rule:evenodd;stroke:none;stroke-width:0.264583pt"
       d="m 7.196943,49.289416 c -0.035562,0.05076 -0.069987,0.02538 -0.1018636,0.01016 -0.029325,-0.01777 -0.058652,-0.03173 -0.086704,-0.06078 -0.035705,-0.02538 -0.0306,-0.08629 -0.0306,-0.08629 0,0 0.024228,-0.209383 0.035705,-0.294406 -0.086704,0.0051 -0.2040106,-0.05076 -0.2040106,-0.05076 L 6.39139,48.573987 6.294484,48.741495 c 0,0 -0.1681663,0.75096 -0.193668,0.847404 -0.025503,0.09644 -0.076505,0.101519 -0.1683087,0.06091 -0.091805,-0.04061 -0.1568334,-0.07487 -0.1581085,-0.137051 0,-0.05076 -0.00511,-1.304102 -0.00511,-1.304102 L 5.1779397,47.868572 c 0,0 -0.2295123,-0.177517 -0.1538578,-0.318094 0.084579,-0.1355 0.3539013,-0.0265 0.3539013,-0.0265 l 0.591489,0.339666 c 0,0 1.0932992,-0.622229 1.1373593,-0.647609 0.054828,-0.03004 0.1170232,0.0089 0.1983438,0.06768 0.08118,0.05879 0.1022888,0.105326 0.031029,0.175544 -0.07112,0.07022 -0.6405077,0.590645 -0.6405077,0.590645 l -0.097189,0.167226 0.4121302,0.243646 c 0,0 0.1072469,0.07318 0.1460654,0.150446 0.068287,-0.05245 0.2382963,-0.177941 0.2382963,-0.177941 0,0 0.050433,-0.03482 0.090388,-0.01678 0.039385,0.0096 0.066162,0.02792 0.096338,0.04427 0.029182,0.01988 0.068429,0.03681 0.042077,0.09306 -0.026211,0.05611 -0.391162,0.684975 -0.4268639,0.735593 z" />
    <rect
       style="fill:#162b5b;fill-opacity:1;stroke-width:0.499999;stroke-linecap:round;stroke-linejoin:bevel"
       id="rect25678"
       width="4.2800484"
       height="31.455851"
       x="13.173236"
       y="14.708529"
       ry="0.7802251" />
    <path
       id="path2072"
       style="fill:#000000;fill-opacity:1;stroke-width:0.264583"
       d="m 15.368921,47.385192 c -0.01117,-1.85e-4 -0.02281,-1.95e-4 -0.571395,5.33e-4 -0.166991,0 -0.255599,0.0903 -0.296495,0.195945 l -0.217218,0.554808 c -0.08606,0.01092 -0.238452,0.111044 -0.238452,0.3005 v 0.705864 h 0.211282 v 0.225393 c 0,0.277655 0.396949,0.274389 0.396949,0 v -0.225393 h 0.714237 l -4.53e-4,-1.3e-5 h 0.714251 v 0.225406 c 0,0.274389 0.396949,0.277655 0.396949,0 v -0.225406 h 0.211268 v -0.705851 c 0,-0.189456 -0.15254,-0.289574 -0.238598,-0.3005 L 16.233987,47.58167 c -0.04089,-0.105647 -0.129503,-0.195945 -0.296493,-0.195945 -0.546707,1.3e-5 -0.557404,-3.47e-4 -0.568573,-5.33e-4 z m -0.573964,0.202655 h 1.145079 c 0.07157,6.61e-4 0.102239,0.04496 0.122688,0.106299 l 0.163569,0.429272 H 15.36735 14.508686 l 0.16357,-0.429272 c 0.02045,-0.06135 0.05113,-0.105638 0.122701,-0.106299 z m -0.333556,0.749262 c 0.101258,0 0.183351,0.08377 0.183351,0.187093 0,0.103323 -0.08209,0.187092 -0.183351,0.187092 -0.101258,0 -0.183352,-0.08377 -0.183352,-0.187092 0,-0.103324 0.08209,-0.187093 0.183352,-0.187093 z m 1.812271,0 c 0.101257,0 0.183352,0.08377 0.183352,0.187093 0,0.103323 -0.08209,0.187092 -0.183352,0.187092 -0.101258,0 -0.183352,-0.08377 -0.183352,-0.187092 0,-0.103324 0.08209,-0.187093 0.183352,-0.187093 z" />
    <rect
       style="fill:#162b5b;fill-opacity:1;stroke-width:0.499999;stroke-linecap:round;stroke-linejoin:bevel"
       id="rect25735"
       width="4.2800484"
       height="21.654961"
       x="21.888662"
       y="24.50942"
       ry="0.53712565" />
    <path
       id="path2170"
       fill="#040404"
       d="m 23.975821,49.385632 c 0.01337,-0.0068 0.03319,-0.01987 0.04406,-0.02901 0.01098,-0.0091 0.02459,-0.01665 0.03036,-0.01665 0.0058,0 0.02608,-0.01486 0.04507,-0.033 0.04511,-0.04307 0.0552,-0.0709 0.01386,-0.144283 -0.008,-0.01415 -0.03513,-0.04293 -0.03935,-0.0545 -0.0098,-0.02693 0.002,-0.06479 0.002,-0.13842 -10e-5,-0.127394 0.01058,-0.204351 0.03279,-0.235999 0.0088,-0.01241 0.01202,-0.03284 0.0082,-0.05058 -0.01137,-0.05291 -6.32e-4,-0.055 0.310973,-0.05903 0.156207,-0.002 0.31296,-0.0078 0.348285,-0.01281 l 0.06429,-0.009 0.05456,0.05495 c 0.03002,0.03026 0.05972,0.06871 0.06608,0.08551 0.01163,0.03085 0.01798,0.03567 0.07323,0.05599 0.02335,0.0086 0.02881,0.0155 0.02275,0.02857 -0.0043,0.0095 -0.01268,0.04521 -0.01839,0.07935 -0.0093,0.0553 -0.01665,0.06832 -0.06826,0.120037 -0.03179,0.03195 -0.06379,0.06931 -0.07099,0.08307 -0.0073,0.01371 -0.03229,0.04104 -0.05575,0.06062 -0.03766,0.03145 -0.04174,0.0392 -0.03518,0.06677 0.01124,0.0477 0.05222,0.06762 0.136333,0.06642 0.03901,-5.48e-4 0.08759,-0.0081 0.108015,-0.0166 0.02042,-0.0085 0.04839,-0.01858 0.06215,-0.02225 0.01376,-0.0037 0.04188,-0.02043 0.06255,-0.03722 0.03334,-0.02708 0.03736,-0.03573 0.03608,-0.07667 -8.84e-4,-0.02643 -0.02321,-0.03603 0.0039,-0.08615 0.02379,-0.04387 0.01605,-0.100057 0.03046,-0.145077 0.02404,-0.07523 0.07458,-0.171858 0.09277,-0.177473 0.02166,-0.0067 0.04805,0.04452 0.0539,0.104631 0.0071,0.0714 -0.0225,0.21727 -0.05158,0.25503 -0.0115,0.01491 -0.02087,0.03154 -0.02087,0.03692 0,0.0054 -0.01947,0.0306 -0.04323,0.05605 -0.02374,0.02544 -0.04323,0.0552 -0.04323,0.06614 0,0.02663 0.04725,0.06896 0.07695,0.06896 0.05177,0 0.16043,-0.02266 0.172354,-0.03598 0.0069,-0.0077 0.01873,-0.01406 0.02619,-0.01406 0.03711,0 0.111191,-0.134793 0.09311,-0.169274 -0.0038,-0.0073 -0.02032,-0.02107 -0.0071,-0.04819 0.02578,-0.05266 0.0035,-0.14473 0.01416,-0.154568 0.0059,-0.0055 -0.108656,-0.283944 -0.08779,-0.475924 0.0065,-0.06066 0.04656,-0.14483 0.06082,-0.24062 0.02346,-0.157947 0.02246,-0.326425 0.02246,-0.31778 0,0.0303 0.03081,-0.0035 0.05153,0.103991 0.0164,0.08506 0.02321,0.284592 0.02653,0.492371 1.99e-4,0.01059 -0.05718,0.432847 -0.05688,0.424005 0.0034,-0.09807 0.01541,0.09678 0.02668,0.09678 0.01124,0 0.05137,0.07218 0.05137,0.08044 0,0.03518 0.05763,-0.02076 0.09504,-0.07676 0.02355,-0.03537 0.02399,-0.05892 0.0033,-0.184727 -0.0022,-0.01376 -0.0057,-0.06101 -0.0077,-0.105036 -0.0024,-0.05202 -0.01254,-0.10284 -0.02922,-0.145077 -0.0231,-0.05883 0.01426,-0.08044 0.01511,-0.225118 5.48e-4,-0.08809 0.0047,-0.229244 0.0093,-0.313806 0.0088,-0.161026 -0.0039,-0.302428 -0.03294,-0.366619 -0.01963,-0.04353 -0.114575,-0.121083 -0.158393,-0.129381 -0.04232,-0.0081 -0.159734,-0.02172 -0.299992,-0.03503 -0.05644,-0.0054 -0.137825,-0.01511 -0.180801,-0.02161 -0.0708,-0.01072 -0.08461,-0.0099 -0.145824,0.0089 -0.174092,0.05331 -0.199829,0.05599 -0.532166,0.05539 -0.189545,-2.98e-4 -0.330349,-0.0048 -0.356484,-0.01137 -0.09305,-0.0234 -0.351763,-0.0094 -0.432103,0.0233 -0.07507,0.0306 -0.224622,0.06468 -0.344957,0.07865 -0.139762,0.0162 -0.216822,0.02255 -0.168181,-0.02718 0.02459,-0.02519 -0.02052,-0.0467 -0.07527,-0.0467 -0.03483,0 -0.06101,0.0073 -0.08908,0.02504 -0.04929,0.03101 -0.05302,0.03101 -0.112341,-0.0012 -0.04794,-0.02598 -0.04924,-0.02614 -0.173348,-0.01654 -0.09608,0.0074 -0.146612,0.0064 -0.218273,-0.0042 -0.05129,-0.0077 -0.104148,-0.0042 -0.116366,-0.0085 -0.08589,-0.03096 -0.101651,-0.0025 0.0088,0.06569 0.02517,0.01555 0.136497,0.03979 0.141545,0.03979 0.0051,0 0.0352,0.01228 0.03885,0.0166 0.0084,0.0099 -0.0021,0.003 -0.01637,0.0046 -0.03765,0.0041 -0.141411,-0.0035 -0.160971,-0.01575 -0.08064,-0.05048 -0.107506,-0.0397 -0.04834,0.0391 0.05481,0.03126 0.115542,0.05922 0.200025,0.07069 l -0.0039,0.07388 c -0.0037,0.07045 -0.03546,0.176328 -0.07323,0.243948 -0.02373,0.04254 -0.05588,0.167436 -0.04928,0.191583 0.01897,0.06931 0.107728,0.117947 0.21876,0.119881 0.0693,0.0011 0.09121,-0.01124 0.136244,-0.07686 0.03249,-0.0473 0.08397,-0.07711 0.133403,-0.07716 0.02091,0 0.05589,-0.0089 0.0778,-0.01982 l 0.03984,-0.01977 0.05724,0.02594 c 0.03145,0.01426 0.07243,0.03328 0.09101,0.04229 0.01858,0.009 0.06325,0.05013 0.09922,0.09142 0.03598,0.04128 0.08814,0.09981 0.115908,0.130073 0.06295,0.06856 0.145177,0.189148 0.145277,0.212997 5.6e-5,0.0099 0.01058,0.03105 0.02335,0.04706 0.02261,0.02832 0.02275,0.0306 0.0056,0.08218 -0.0097,0.02911 -0.02066,0.07775 -0.02445,0.108016 -0.0078,0.06195 -0.01933,0.08243 -0.07736,0.138072 -0.07378,0.0708 -0.143191,0.150443 -0.143191,0.164404 0,0.0076 0.0085,0.03215 0.02901,0.05058 l 0.0456,0.03021 0.08651,-0.0063 c 0.04755,-0.0034 0.09514,-0.01006 0.105781,-0.01486 0.01071,-0.0048 0.03871,-0.01734 0.0623,-0.02787 0.05172,-0.02305 0.07875,-0.06319 0.0541,-0.08029 -0.02126,-0.01475 -0.02022,-0.02346 0.0057,-0.0491 0.01888,-0.01858 0.02225,-0.03761 0.02534,-0.140756 0.0037,-0.12759 0.01381,-0.158939 0.06523,-0.203456 0.01541,-0.01332 0.02947,-0.02236 0.03131,-0.02002 0.05406,0.06871 0.08649,0.174093 0.08114,0.263773 -0.0054,0.08853 -0.02906,0.135587 -0.102697,0.203406 -0.05013,0.04615 -0.05729,0.05773 -0.05729,0.0928 0,0.03378 0.0043,0.04158 0.02772,0.04979 0.03871,0.01366 0.199482,0.01032 0.228746,-0.0046 z"
       style="fill:#000000;fill-opacity:1;stroke-width:0.264583" />
    <text
       xml:space="preserve"
       style="font-style:normal;font-variant:normal;font-weight:500;font-stretch:normal;font-size:2.73348px;line-height:1.25;font-family:Roboto;-inkscape-font-specification:'Roboto, Medium';font-variant-ligatures:normal;font-variant-caps:normal;font-variant-numeric:normal;font-variant-east-asian:normal;letter-spacing:0px;word-spacing:0px;fill:#000000;fill-opacity:1;stroke:none;stroke-width:0.264583"
       x="3.0163507"
       y="12.848128"
       id="text25750"><tspan
         sodipodi:role="line"
         id="tspan25748"
         x="3.0163507"
         y="12.848128"
         style="font-style:normal;font-variant:normal;font-weight:500;font-stretch:normal;font-size:2.73348px;font-family:Roboto;-inkscape-font-specification:'Roboto, Medium';font-variant-ligatures:normal;font-variant-caps:normal;font-variant-numeric:normal;font-variant-east-asian:normal;stroke-width:0.264583">10 Mt</tspan></text>
  </g>
</svg>
